<svg width="24" height="24" viewBox="0 0 24 24" fill="none" xmlns="http://www.w3.org/2000/svg">
<path fill-rule="evenodd" clip-rule="evenodd" d="M11.9998 1.89473C6.41678 1.89473 1.89453 6.42318 1.89453 12C1.89453 16.4664 4.7915 20.2505 8.80507 21.5904C9.30754 21.6834 9.49364 21.3733 9.49364 21.1003C9.49364 20.8584 9.48744 20.2256 9.48123 19.382C6.67111 19.9899 6.07559 18.0297 6.07559 18.0297C5.61654 16.8634 4.95278 16.5533 4.95278 16.5533C4.03469 15.9267 5.02102 15.9391 5.02102 15.9391C6.03217 16.0136 6.57186 16.9813 6.57186 16.9813C7.47135 18.5259 8.93534 18.0793 9.51225 17.8187C9.6053 17.1674 9.86584 16.7207 10.1512 16.4664C7.90558 16.2121 5.54831 15.3436 5.54831 11.4727C5.54831 10.3685 5.93912 9.46902 6.59047 8.76184C6.48501 8.5075 6.13762 7.47775 6.68972 6.0882C6.68972 6.0882 7.53958 5.81525 9.46882 7.12416C10.2753 6.90084 11.1375 6.78918 11.9998 6.78297C12.8559 6.78918 13.7243 6.90084 14.5308 7.12416C16.46 5.81525 17.3099 6.0882 17.3099 6.0882C17.862 7.47775 17.5146 8.5075 17.4091 8.76184C18.0543 9.46902 18.4451 10.3685 18.4451 11.4727C18.4451 15.356 16.0816 16.2059 13.8298 16.4602C14.1896 16.7704 14.5184 17.3907 14.5184 18.3336C14.5184 19.6859 14.5059 20.7715 14.5059 21.1065C14.5059 21.3795 14.6858 21.6896 15.2007 21.5904C19.2143 20.2505 22.1051 16.4664 22.1051 12.0062C22.1051 6.42318 17.5828 1.89473 11.9998 1.89473Z" fill="#191717"/>
</svg>
